<svg viewBox="0 0 64 64" fill="none" xmlns="http://www.w3.org/2000/svg">
  <defs>
    <linearGradient id="tpFavGrad" x1="0%" y1="0%" x2="100%" y2="100%">
      <stop offset="0%" stop-color="#3b82f6"/>
      <stop offset="100%" stop-color="#7c3aed"/>
    </linearGradient>
  </defs>
  <rect width="64" height="64" rx="14" fill="#0b1220"/>
  <g fill="url(#tpFavGrad)">
    <path d="M6 12 Q6 9 9 9 H29 Q32 9 32 12 V16 Q32 19 29 19 H22 V50 Q22 54 18 54 Q14 54 14 50 V19 H9 Q6 19 6 16 Z"/>
    <path d="M36 13 Q36 9 40 9 Q44 9 44 13 V50 Q44 54 40 54 Q36 54 36 50 Z"/>
  </g>
  <path d="M44 14 H50 Q59 14 59 23 Q59 32 50 32 H44"
        stroke="url(#tpFavGrad)"
        stroke-width="8"
        stroke-linecap="round"
        stroke-linejoin="round"
        fill="none"/>
</svg>
