<svg viewBox="0 0 64 64" xmlns="http://www.w3.org/2000/svg" fill="none" role="img" aria-label="Trade Pilot">
  <defs>
    <linearGradient id="tpBrandGrad" x1="0%" y1="0%" x2="100%" y2="100%">
      <stop offset="0%" stop-color="#f5c518" />
      <stop offset="100%" stop-color="#ff9f1c" />
    </linearGradient>
  </defs>
  <g fill="url(#tpBrandGrad)">
    <path d="M3 9 Q3 6 6 6 H30 Q33 6 33 9 V14 Q33 17 30 17 H22 V52 Q22 56 18 56 Q14 56 14 52 V17 H6 Q3 17 3 14 Z" />
    <path d="M36 10 Q36 6 40 6 Q44 6 44 10 V52 Q44 56 40 56 Q36 56 36 52 Z" />
  </g>
  <path
    d="M44 11 H50 Q61 11 61 22 Q61 33 50 33 H44"
    stroke="url(#tpBrandGrad)"
    stroke-width="9"
    stroke-linecap="round"
    stroke-linejoin="round"
  />
</svg>
